<?xml version="1.0" standalone="no"?>
<!DOCTYPE svg PUBLIC "-//W3C//DTD SVG 20010904//EN"
 "http://www.w3.org/TR/2001/REC-SVG-20010904/DTD/svg10.dtd">
<svg version="1.0" xmlns="http://www.w3.org/2000/svg"
 width="1024.000000pt" height="1024.000000pt" viewBox="0 0 1024.000000 1024.000000"
 preserveAspectRatio="xMidYMid meet">

<g transform="translate(0.000000,1024.000000) scale(0.100000,-0.100000)"
fill="#0070f3" stroke="none">
<path d="M4000 8539 c-206 -4 -391 -11 -410 -17 -19 -5 -82 -32 -140 -60 -100
-49 -112 -52 -240 -66 -74 -8 -177 -18 -229 -21 -164 -12 -244 -43 -292 -114
-13 -20 -28 -39 -33 -42 -5 -4 -47 -10 -95 -14 -133 -10 -338 -57 -446 -102
-216 -89 -378 -190 -460 -285 -103 -121 -215 -426 -215 -587 0 -47 -2 -51 -42
-78 -51 -34 -96 -96 -108 -149 -13 -53 -12 -500 0 -545 6 -20 23 -54 38 -75
l27 -39 1 -460 c1 -449 1 -461 -19 -489 -20 -29 -21 -32 -6 -250 8 -122 14
-324 14 -451 0 -201 2 -235 18 -272 20 -44 66 -91 109 -110 40 -18 329 -99
458 -128 145 -34 362 -86 700 -169 146 -36 333 -77 415 -91 83 -14 179 -34
215 -43 44 -12 96 -16 163 -15 94 2 97 2 96 -20 -1 -32 -406 -381 -649 -559
-69 -51 -131 -98 -138 -105 -8 -7 -60 -45 -115 -85 -156 -109 -180 -136 -139
-156 22 -12 587 -193 757 -243 72 -21 182 -54 245 -74 63 -19 162 -49 220 -65
58 -16 193 -58 300 -93 107 -35 256 -83 330 -107 113 -35 262 -86 381 -132 15
-5 42 -8 60 -6 32 3 34 5 31 38 -8 90 -16 633 -9 645 4 8 31 23 60 33 28 11
90 38 137 60 47 22 126 56 175 77 50 20 122 52 160 70 39 18 120 54 180 80 61
26 148 65 195 87 47 22 123 56 170 75 47 20 127 55 178 79 51 24 95 44 98 44
6 0 225 94 269 115 17 9 68 31 115 51 47 20 121 52 165 71 44 19 123 52 175
73 191 77 286 118 325 137 22 12 96 45 165 74 69 29 130 55 135 59 6 4 93 42
195 84 240 100 288 120 390 166 272 121 370 164 505 222 83 36 182 77 220 92
97 38 159 85 190 146 l25 49 1 353 c1 194 4 454 8 576 l6 224 27 21 c15 12 51
30 80 41 72 25 125 69 138 114 16 53 8 338 -10 379 -14 31 -13 34 14 62 l28
29 6 804 c3 442 2 820 -2 841 -9 49 -49 95 -94 106 -20 5 -224 15 -452 21
-228 6 -536 17 -685 25 -290 16 -704 29 -1415 45 -439 10 -633 16 -1495 45
-460 16 -563 16 -1175 4z m853 -179 c-8 -222 -16 -332 -24 -318 -4 8 -11 80
-15 161 -4 80 -10 150 -13 156 -4 6 -149 12 -376 16 -381 7 -748 -4 -870 -26
-65 -12 -88 -8 -68 12 19 19 167 51 268 59 55 4 325 7 600 6 l500 -1 -2 -65z
m110 -1110 c-1 -1107 -8 -1542 -23 -1458 -4 20 -7 620 -8 1333 -2 1231 -1
1296 15 1293 17 -3 18 -65 16 -1168z m702 1150 c342 -11 954 -26 1655 -40 278
-6 570 -15 650 -20 80 -5 385 -16 678 -25 294 -8 538 -17 543 -21 5 -3 9 -322
9 -780 0 -677 -2 -774 -15 -774 -8 0 -17 10 -20 23 -3 12 -5 346 -3 742 l3
720 -137 5 c-75 3 -139 7 -141 10 -3 3 53 3 124 1 81 -2 129 1 129 7 0 6 -101
12 -262 17 -297 7 -598 4 -598 -7 0 -5 -9 -8 -20 -8 -11 0 -20 5 -20 11 0 9
-16 9 -57 4 -32 -5 -101 -8 -153 -8 -52 0 -365 1 -695 2 -330 2 -618 7 -640
11 -32 7 -27 8 25 4 36 -3 79 -1 95 4 32 9 -162 22 -332 22 -48 0 -83 4 -83
10 0 6 -29 10 -67 9 -38 0 -81 2 -98 5 -16 3 -129 6 -250 6 -149 0 -215 3
-205 10 10 6 -43 9 -165 8 -134 -1 -161 -3 -105 -8 50 -4 61 -7 33 -8 -43 -2
-56 -15 -27 -26 9 -3 32 -5 52 -4 37 1 37 1 -8 9 -38 6 -35 7 15 2 203 -16
173 -20 -170 -20 -203 -1 -359 2 -345 6 25 7 25 7 3 13 -13 4 -23 14 -23 25 0
10 -7 27 -15 37 -36 48 -28 50 168 42 100 -4 313 -11 472 -16z m-1700 -136
c382 -4 557 -14 601 -35 32 -16 63 -63 74 -114 l8 -34 -57 1 c-56 1 -90 12
-103 32 -12 18 -9 26 15 36 19 8 17 9 -15 9 -21 1 -57 -3 -80 -9 -114 -26
-399 -57 -455 -49 -32 5 -292 13 -578 19 -529 10 -625 15 -625 30 0 20 53 69
97 90 72 34 152 39 473 33 162 -3 453 -7 645 -9z m2525 -73 l515 -6 -240 -10
c-269 -10 -306 -11 -420 -6 -44 2 -98 1 -120 -1 -30 -4 -33 -4 -10 2 19 5 -15
8 -92 9 -68 0 -123 -2 -123 -6 0 -5 39 -6 87 -4 49 1 84 -1 80 -5 -4 -4 -42
-10 -85 -12 -42 -2 -78 -7 -80 -13 -2 -5 -21 -9 -43 -9 -28 0 -39 -4 -39 -15
0 -11 -11 -15 -40 -15 -22 0 -40 -4 -40 -10 0 -5 -18 -10 -40 -10 -22 0 -40
-5 -40 -11 0 -6 -11 -8 -27 -5 -16 3 -53 2 -83 -3 -47 -7 -50 -9 -17 -10 20 0
37 -6 37 -12 0 -8 16 -10 47 -6 37 4 43 3 27 -6 -10 -6 -48 -11 -84 -12 -41
-1 -56 1 -40 6 22 6 21 7 -11 8 -19 1 -44 -6 -55 -14 -14 -11 -51 -14 -151
-15 l-132 0 4 -142 c4 -131 3 -138 -7 -78 l-12 65 -10 -55 c-6 -34 -11 -46
-14 -32 -4 23 -22 31 -22 9 0 -7 -20 -21 -45 -32 -30 -14 -45 -26 -46 -40 -1
-16 -2 -16 -8 5 -7 21 -9 18 -15 -25 -10 -66 -16 -80 -13 -28 3 53 -11 42 -15
-12 -2 -22 -7 94 -12 257 -4 163 -5 302 0 309 5 9 110 10 463 4 251 -4 688
-11 971 -14z m-3410 -111 c102 -5 197 -6 213 -3 15 3 66 2 113 -2 75 -6 84 -9
72 -21 -33 -33 -137 -38 -537 -25 -216 6 -390 16 -395 21 -18 18 -47 10 -144
-42 -113 -60 -212 -127 -261 -177 l-34 -35 34 -14 c25 -11 127 -17 399 -23
336 -8 415 -16 366 -35 -21 -8 -748 3 -818 12 -31 4 -48 11 -48 21 0 11 -5 11
-30 -2 -26 -13 -51 -15 -140 -9 -61 4 -110 10 -110 15 0 15 125 97 240 157
137 72 311 131 495 167 73 14 199 13 585 -5z m803 -26 c15 -4 27 -9 27 -13 0
-6 -138 -72 -174 -82 -85 -24 -213 -115 -297 -209 l-55 -62 -189 17 c-105 9
-194 20 -198 24 -13 13 33 61 84 87 27 13 75 41 107 61 51 33 288 148 382 187
17 7 272 -1 313 -10z m777 -10 c19 -19 58 -170 84 -324 33 -196 56 -363 51
-368 -2 -2 -42 -7 -89 -9 -99 -7 -86 -25 -112 157 -8 63 -22 146 -30 183 -15
72 -13 87 13 87 13 0 15 10 9 63 -3 35 -15 95 -26 135 -28 102 -29 99 35 92
30 -3 60 -11 65 -16z m1373 19 c-7 -2 -19 -2 -25 0 -7 3 -2 5 12 5 14 0 19 -2
13 -5z m-1876 -9 c-3 -3 -12 -4 -19 -1 -8 3 -5 6 6 6 11 1 17 -2 13 -5z m1563
-4 c0 -5 -9 -10 -20 -10 -11 0 -20 5 -20 10 0 6 9 10 20 10 11 0 20 -4 20 -10z
m-1597 -38 c4 -20 20 -59 37 -85 16 -26 28 -47 26 -47 -10 0 -115 153 -111
161 4 5 14 9 24 9 14 0 20 -10 24 -38z m4837 21 c0 -5 -12 -30 -26 -58 -81
-162 -174 -369 -174 -390 0 -13 15 -52 33 -87 18 -35 40 -81 49 -103 9 -22 28
-67 43 -99 27 -58 75 -182 75 -191 0 -3 -14 -5 -31 -5 -17 0 -58 -7 -91 -16
-33 -8 -61 -14 -63 -12 -12 14 -127 257 -146 308 l-24 65 -7 -70 c-4 -38 -11
-131 -15 -204 l-8 -135 -70 -12 c-38 -7 -77 -13 -86 -13 -15 -1 -16 43 -15
498 l1 499 59 6 c32 3 72 6 87 6 l29 0 1 -172 1 -173 86 174 87 173 88 3 c49
2 91 6 94 9 9 8 23 7 23 -1z m-4936 -55 c13 -18 40 -60 59 -93 60 -102 60
-102 232 -110 83 -3 157 -8 166 -11 20 -6 41 -78 69 -236 21 -123 26 -198 12
-198 -25 0 -329 -31 -342 -35 -8 -2 -51 -9 -95 -14 -506 -65 -544 -72 -625
-118 -64 -36 -88 -61 -117 -117 -22 -44 -26 -66 -34 -240 -25 -504 -23 -481
-39 -481 -22 0 -24 156 -6 550 19 403 40 560 97 713 25 68 41 94 108 167 80
88 130 122 281 192 161 74 197 79 234 31z m4103 19 c12 -8 67 -233 144 -592
27 -128 85 -367 93 -386 5 -12 -10 -18 -86 -33 -108 -20 -107 -21 -127 69 -14
64 -6 61 -153 43 l-98 -12 -6 -35 c-3 -20 -13 -61 -22 -91 l-17 -55 -75 -12
c-41 -7 -87 -18 -103 -24 -15 -6 -30 -10 -32 -7 -6 5 76 374 121 546 19 76 48
187 64 247 16 61 38 157 51 215 12 58 25 112 29 120 6 12 29 15 107 14 54 0
104 -3 110 -7z m-397 -127 c0 -65 -4 -121 -9 -125 -6 -3 -52 -8 -104 -12 l-94
-6 -7 -81 c-4 -45 -4 -244 0 -443 l7 -363 -29 0 c-25 0 -59 -7 -183 -36 l-24
-5 7 456 7 455 -83 -7 c-46 -3 -96 -7 -113 -7 l-30 -1 0 135 0 134 35 8 c35 8
599 26 613 20 4 -2 7 -57 7 -122z m-5170 111 c0 -5 8 -11 19 -14 27 -7 26 -84
-2 -114 -18 -20 -29 -23 -104 -21 -46 1 -86 5 -89 10 -3 5 -19 6 -35 3 -19 -4
-29 -3 -29 5 0 7 -8 9 -20 5 -31 -10 -24 3 13 21 17 9 61 36 97 59 36 24 74
45 85 48 34 8 65 7 65 -2z m4266 -38 c20 -89 49 -200 75 -288 17 -55 44 -149
60 -210 123 -454 158 -569 197 -657 3 -6 -26 -13 -202 -48 -27 -6 -51 -9 -52
-7 -2 2 -15 47 -28 101 -13 54 -26 100 -29 102 -5 6 -134 -10 -235 -27 -55
-10 -63 -14 -68 -38 -4 -14 -16 -66 -28 -116 l-22 -90 -60 -11 c-32 -7 -86
-17 -119 -23 -33 -7 -96 -19 -140 -27 -76 -13 -141 -27 -175 -35 -11 -3 -38
41 -95 151 -44 85 -109 204 -144 263 l-65 108 -15 -33 c-13 -27 -16 -77 -16
-288 l0 -255 -115 -21 c-63 -11 -127 -24 -142 -29 l-28 -7 -1 133 c-1 74 -2
403 -3 732 -1 590 -1 598 19 602 11 3 75 6 143 7 l122 3 2 -210 c2 -115 2
-238 1 -272 -1 -35 1 -63 5 -63 4 0 15 19 25 43 9 23 56 110 103 192 47 83
101 179 121 215 56 102 47 98 186 99 67 1 132 4 145 8 16 4 22 1 22 -10 0 -9
-4 -18 -9 -21 -5 -3 -23 -34 -41 -68 -18 -35 -61 -110 -95 -168 -35 -58 -95
-158 -133 -223 l-71 -118 16 -37 c8 -20 63 -131 122 -247 59 -115 118 -237
133 -270 14 -33 33 -69 42 -80 15 -20 15 -19 16 7 0 15 7 45 15 65 14 38 123
478 145 587 7 33 23 96 36 140 13 45 42 162 64 261 23 99 44 183 48 187 4 4
43 9 87 11 193 8 174 10 181 -20z m-4571 -272 c132 -6 348 -11 480 -12 194 -1
236 -3 222 -14 -22 -16 -135 -33 -272 -40 -60 -4 -137 -13 -170 -22 -41 -11
-129 -17 -283 -20 -194 -5 -225 -3 -247 11 -14 9 -25 14 -25 10 0 -4 -7 -1
-16 7 -13 10 -17 10 -26 -2 -7 -11 -11 -11 -15 -1 -2 6 -12 12 -20 12 -11 0
-14 6 -9 23 3 12 6 33 6 46 0 23 2 23 68 18 37 -4 175 -11 307 -16z m-493 -38
c21 -19 24 -73 7 -123 l-12 -33 -58 6 c-39 3 -60 1 -64 -6 -3 -7 -3 6 0 29 6
48 40 130 58 137 24 10 51 7 69 -10z m1478 -43 c25 -25 25 -43 0 -98 -24 -54
-53 -65 -123 -51 -28 6 -53 13 -55 14 -10 9 23 91 49 120 26 29 38 35 70 35
26 0 46 -7 59 -20z m-1125 -210 c154 -6 357 -15 450 -20 94 -6 224 -13 290
-16 171 -7 245 -14 245 -24 0 -5 -13 -21 -30 -37 -39 -37 -92 -44 -205 -27
-49 7 -220 18 -380 24 -159 6 -409 15 -555 20 -330 12 -360 17 -360 61 0 33
29 40 150 34 63 -3 241 -10 395 -15z m2713 -280 c14 -211 28 -1028 18 -1094
-6 -38 -12 -46 -39 -56 -18 -7 -45 -18 -62 -25 -51 -21 -124 -38 -139 -32 -8
3 -76 -22 -152 -55 -77 -33 -165 -71 -197 -84 -33 -14 -77 -36 -99 -50 -34
-22 -39 -23 -36 -8 2 12 47 41 118 79 63 34 144 79 180 101 67 41 141 79 173
88 16 5 17 27 17 279 0 222 3 277 14 286 21 18 26 498 7 676 -6 48 -5 72 3 78
6 4 49 6 96 5 l85 -3 13 -185z m-236 105 c19 -195 21 -235 11 -235 -6 0 -14
15 -17 33 -5 27 -95 179 -121 205 -4 4 18 -44 49 -107 31 -63 56 -126 56 -140
0 -29 -23 -50 -168 -154 -51 -37 -98 -71 -105 -77 -63 -53 -149 -111 -155
-106 -4 4 -9 142 -10 305 l-4 298 44 11 c37 9 136 22 268 36 19 2 60 3 90 2
l55 -1 7 -70z m-2382 50 c239 -8 503 -21 585 -30 83 -8 158 -15 168 -15 11 0
15 -4 11 -11 -8 -13 -35 -12 -594 15 -168 9 -415 20 -549 27 -266 12 -361 28
-171 28 63 0 311 -6 550 -14z m1865 -350 c0 -179 -3 -325 -7 -325 -5 0 -11 0
-15 0 -5 0 -6 140 -4 311 l3 312 -36 -7 c-20 -4 -103 -16 -184 -27 -207 -27
-287 -53 -356 -113 -16 -14 -31 -26 -33 -26 -9 0 18 37 44 61 71 64 117 78
364 109 96 12 176 24 178 26 2 2 14 4 25 4 21 0 21 -2 21 -325z m-2300 251
c105 -8 312 -20 460 -26 250 -10 448 -22 620 -39 39 -4 -63 -7 -226 -6 -314 1
-452 -7 -473 -27 -7 -7 -45 -24 -84 -37 -40 -13 -72 -27 -72 -32 0 -5 -18 -9
-40 -9 -22 0 -40 -4 -40 -10 0 -5 -9 -10 -19 -10 -11 0 -21 -4 -23 -8 -4 -10
-118 -72 -132 -72 -6 0 -17 -9 -24 -20 -7 -11 -19 -20 -27 -20 -8 0 -15 -3
-15 -8 0 -6 -72 -42 -84 -42 -3 0 -6 15 -8 33 -2 17 -11 -28 -22 -101 -10 -73
-16 -136 -13 -139 7 -7 339 -50 482 -63 138 -12 501 -47 620 -60 50 -5 163
-15 253 -22 154 -11 192 -20 138 -34 -21 -5 -467 29 -736 56 -310 31 -602 64
-700 78 l-115 17 2 30 c25 306 35 404 48 475 8 47 15 91 15 98 0 15 -15 15
215 -2z m-295 -114 c0 -10 -5 -23 -12 -30 -8 -8 -15 -95 -21 -269 -5 -142 -12
-261 -16 -265 -3 -4 -13 -3 -21 2 -23 14 -16 494 7 530 30 46 63 63 63 32z
m2086 -89 c74 -24 116 -44 125 -58 16 -25 24 -407 12 -570 l-8 -109 -56 -39
c-31 -21 -103 -78 -159 -128 -56 -49 -106 -89 -111 -89 -23 0 -2 27 86 112
l95 91 0 366 c0 408 1 400 -68 421 -20 6 -43 13 -50 16 -15 5 -7 24 11 24 7 0
62 -16 123 -37z m126 22 c34 -9 65 -42 73 -80 5 -27 4 -28 -7 -11 -37 53 -55
70 -92 87 -23 11 -32 17 -21 14 11 -2 32 -7 47 -10z m5298 -182 c-2 -170 -3
-163 20 -134 15 17 39 27 93 37 90 17 97 17 97 0 0 -20 -67 -44 -178 -62 -116
-19 -198 -36 -312 -64 -47 -12 -119 -28 -160 -37 -41 -8 -104 -24 -140 -34
-36 -11 -94 -26 -130 -33 -36 -8 -110 -26 -164 -40 -80 -21 -102 -24 -114 -14
-12 10 -16 10 -19 1 -8 -21 -233 -79 -233 -60 0 6 -5 5 -12 -1 -15 -12 -246
-73 -368 -96 -47 -10 -109 -24 -137 -32 -29 -8 -84 -21 -123 -28 -65 -13 -70
-12 -70 4 0 23 15 34 75 53 98 30 114 31 124 5 6 -13 10 -17 10 -9 1 7 7 11
16 7 8 -3 19 3 25 14 10 19 86 40 159 45 l34 3 1 158 c1 145 3 159 19 162 18
4 18 -4 13 -125 -2 -70 -8 -147 -11 -170 -4 -24 -5 -43 -2 -43 4 0 17 11 30
24 28 28 78 45 160 53 48 5 57 9 51 22 -4 9 -9 78 -12 154 -4 122 -3 137 12
137 18 0 17 7 16 -177 l-1 -133 47 20 c26 11 76 26 111 33 l65 12 -3 145 c-4
135 -3 145 15 148 17 4 18 -5 15 -156 -4 -142 -2 -159 11 -147 16 14 124 45
158 45 20 0 21 4 15 103 -7 126 2 197 24 197 14 0 15 -18 11 -150 -5 -140 -4
-149 12 -135 9 8 49 22 89 31 69 16 72 17 67 43 -5 27 -10 153 -7 209 0 17 6
32 12 32 7 0 9 -48 7 -149 -3 -149 -3 -150 17 -131 25 23 106 44 142 37 19 -4
34 1 48 13 11 11 53 25 95 33 55 10 74 18 71 28 -18 68 -10 259 11 259 7 0 9
-44 6 -130 l-4 -130 26 0 c14 1 52 6 84 13 l59 12 -2 133 c-2 117 -1 132 14
132 15 0 16 -16 15 -137z m-4376 70 c-5 -21 -8 -95 -9 -164 0 -123 -1 -127
-25 -148 -14 -11 -28 -20 -33 -21 -4 0 -67 -37 -140 -83 -72 -46 -160 -100
-193 -120 -56 -33 -82 -62 -70 -74 2 -3 17 4 33 15 58 40 343 212 352 212 5 0
14 7 21 15 7 8 15 15 19 15 4 0 6 -114 6 -252 l0 -253 -30 -13 c-16 -8 -68
-37 -115 -66 -106 -64 -109 -65 -156 -97 -21 -14 -55 -31 -74 -39 -19 -8 -45
-25 -57 -39 l-23 -26 0 406 0 405 72 55 c40 29 108 82 151 117 86 70 257 191
271 191 4 1 5 -16 0 -36z m3995 -100 c-1 -108 -9 -157 -24 -157 -13 -1 -18
110 -10 192 5 44 11 62 21 62 11 0 14 -19 13 -97z m-1327 -326 c-1 -78 -5
-149 -9 -157 -10 -27 -24 41 -30 156 -6 112 3 159 30 149 9 -4 11 -42 9 -148z
m1698 98 c9 -9 30 -40 45 -71 23 -46 29 -71 31 -138 l3 -81 -10 70 c-13 97
-26 132 -66 176 -27 30 -43 39 -67 39 -34 0 -52 -15 -94 -76 -43 -62 -66 -217
-49 -314 l7 -35 -14 30 c-49 102 -19 299 57 381 41 44 119 53 157 19z m-1940
-139 c0 -80 -4 -147 -9 -150 -15 -10 -21 35 -21 167 0 106 2 127 15 127 13 0
15 -23 15 -144z m-2982 -718 c-25 -20 -91 -55 -550 -297 l-118 -62 0 288 c0
277 1 289 20 301 11 6 52 38 91 69 39 32 112 85 162 118 50 33 99 71 109 85
10 14 21 50 24 80 3 30 7 65 10 76 5 25 123 103 211 139 l58 23 3 -401 2 -402
-22 -17z m2740 692 c1 -68 -2 -137 -8 -153 -5 -16 -7 -40 -4 -54 l6 -24 12 23
c13 26 89 55 171 64 48 6 50 5 51 -19 2 -24 -4 -27 -85 -47 -47 -11 -108 -25
-136 -29 -27 -5 -86 -18 -130 -29 -44 -11 -102 -25 -130 -30 -27 -6 -98 -23
-157 -38 -59 -16 -110 -25 -114 -22 -3 4 -4 18 0 31 5 22 17 27 103 47 54 13
106 23 115 22 13 0 16 6 13 31 -12 100 -14 132 -8 211 5 77 8 86 26 86 19 0
20 -5 13 -127 -3 -71 -9 -143 -12 -162 -6 -32 -5 -34 17 -27 62 19 148 35 188
36 l44 0 -7 154 c-6 155 -3 190 18 183 7 -2 12 -47 14 -127z m-5227 110 c30
-6 158 -24 286 -40 251 -33 263 -35 263 -56 0 -16 -29 -17 -105 -4 -70 12
-397 59 -404 58 -3 0 -32 0 -63 1 -55 1 -58 2 -58 26 0 28 5 29 81 15z m7051
-26 c28 -25 58 -92 58 -129 0 -25 -4 -20 -25 30 -29 70 -46 85 -95 85 -50 0
-78 -24 -108 -89 -62 -139 -75 -231 -48 -346 16 -66 15 -81 -2 -38 -32 81 -46
187 -32 247 20 90 64 189 102 229 35 37 40 39 83 35 25 -3 55 -14 67 -24z
m-2368 -187 c-2 -67 -6 -139 -9 -159 -3 -22 0 -46 7 -58 10 -16 10 -22 -3 -35
-15 -15 -17 -9 -22 67 -12 144 -9 306 6 311 6 2 15 3 19 0 4 -2 5 -58 2 -126z
m-3969 114 c40 -9 40 -9 -15 -9 -30 0 -66 4 -80 8 -22 7 -19 8 15 8 22 1 58
-3 80 -7z m235 -16 c74 -8 189 -19 255 -25 144 -13 168 -17 163 -32 -4 -12
-176 -12 -225 0 -15 4 -56 6 -90 4 -35 -1 -63 2 -63 6 0 4 -19 8 -42 8 -24 0
-76 2 -115 5 -72 4 -73 4 -73 31 0 24 3 27 28 23 15 -3 88 -12 162 -20z m5742
-18 c23 -25 64 -117 53 -117 -1 0 -17 23 -35 50 -36 56 -55 70 -95 70 -41 0
-79 -27 -115 -82 -92 -142 -103 -332 -28 -482 26 -51 27 -58 9 -42 -26 23 -55
100 -76 201 -13 65 -14 91 -4 154 13 89 63 204 106 244 58 54 139 56 185 4z
m638 23 c0 -11 -14 -47 -31 -80 -16 -33 -27 -65 -23 -71 3 -6 18 14 32 45 28
62 47 73 40 24 -3 -18 -1 -40 5 -49 23 -36 -36 -115 -67 -90 -27 23 -40 86
-27 137 19 74 71 136 71 84z m-7225 -26 c83 -14 229 -34 325 -45 96 -10 258
-30 360 -44 222 -30 363 -41 610 -50 154 -6 195 -4 246 9 117 31 107 12 -13
-25 -37 -12 -74 -26 -82 -33 -36 -29 -574 10 -956 69 -82 13 -175 26 -205 30
-96 10 -444 67 -467 76 -33 12 -30 39 5 39 15 0 95 -12 177 -26z m7291 -201
c-23 -45 -56 -74 -79 -71 -32 5 -30 22 5 38 49 23 69 67 77 168 l6 87 3 -97
c2 -71 -1 -105 -12 -125z m-2991 50 c-3 -76 -8 -151 -12 -168 -12 -60 -22 7
-22 158 -1 141 0 147 19 147 20 0 20 -4 15 -137z m3203 73 c3 -59 -8 -86 -35
-86 -11 0 -13 5 -8 18 4 9 10 43 13 75 6 75 26 70 30 -7z m-539 -208 c-14 -52
-67 -108 -103 -108 -32 0 -34 16 -3 24 51 13 95 116 105 245 l7 86 3 -103 c1
-56 -2 -121 -9 -144z m-69 192 c0 -6 -4 -10 -9 -10 -11 0 -39 -59 -47 -99 -10
-50 10 -36 35 24 13 30 27 53 32 50 11 -7 2 -111 -12 -147 -15 -38 -36 -42
-64 -13 -32 35 -38 68 -25 132 14 67 41 98 70 83 11 -6 20 -15 20 -20z m-2892
-134 c-2 -85 -6 -158 -10 -162 -18 -17 -23 16 -26 162 -3 152 -3 154 18 154
21 0 21 -2 18 -154z m-318 -61 c0 -89 -4 -154 -12 -170 -21 -46 -28 -6 -28
158 0 150 1 157 20 157 19 0 20 -7 20 -145z m-3136 102 c12 -12 27 -31 33 -42
11 -18 12 -18 39 0 35 23 117 45 168 45 37 0 39 -1 20 -15 -10 -8 -55 -26 -99
-40 -63 -21 -87 -35 -115 -66 -45 -49 -85 -59 -123 -29 -23 18 -27 29 -27 69
0 86 55 127 104 78z m5956 -5 c0 -10 -9 -36 -19 -58 -11 -22 -22 -57 -25 -79
l-6 -40 20 40 c10 22 24 53 30 69 7 22 13 27 21 19 19 -19 1 -150 -26 -180
-27 -32 -47 -27 -75 19 -33 54 -22 162 21 215 17 20 59 17 59 -5z m-331 -127
c-1 -131 -4 -139 -54 -143 -44 -3 -205 -49 -415 -117 -74 -24 -200 -62 -280
-85 -80 -23 -197 -59 -261 -81 -65 -21 -124 -39 -133 -39 -9 0 -16 -8 -16 -20
0 -27 13 -26 132 14 117 39 334 106 423 131 33 9 157 47 275 85 118 37 233 71
255 75 22 4 45 11 51 16 8 6 13 3 17 -11 7 -26 -5 -32 -124 -65 -51 -14 -193
-57 -314 -95 -252 -79 -524 -159 -639 -189 -43 -11 -85 -26 -92 -32 -8 -6 -21
-9 -29 -5 -12 4 -15 25 -15 103 0 54 3 135 7 181 l6 82 38 0 c22 0 39 -5 39
-10 0 -6 10 -4 23 4 30 20 229 83 492 156 121 34 245 70 275 80 74 26 201 58
261 66 27 4 52 11 55 16 15 23 24 -24 23 -117z m413 14 c0 -69 -4 -94 -25
-141 -27 -61 -70 -99 -89 -80 -8 8 -5 17 15 32 47 37 66 81 78 183 7 54 14 95
16 93 2 -2 4 -41 5 -87z m-2042 -7 c0 -26 -4 -28 -99 -55 -110 -30 -131 -33
-131 -14 1 31 32 50 124 78 90 26 106 25 106 -9z m-4125 -8 c-11 -9 -38 -24
-60 -34 -37 -18 -38 -19 -15 -24 43 -9 250 -35 370 -46 63 -6 178 -20 255 -31
77 -11 173 -24 214 -29 79 -10 103 -22 84 -41 -9 -9 -40 -8 -125 5 -137 20
-292 39 -498 61 -85 8 -191 22 -235 30 -44 8 -141 21 -215 30 -173 20 -312 45
-328 58 -28 23 9 27 109 12 57 -8 150 -19 205 -25 101 -9 102 -9 160 20 33 16
68 29 79 29 l20 0 -20 -15z m3873 -60 c2 -17 -16 -24 -145 -55 -98 -25 -150
-33 -155 -26 -4 7 -12 5 -22 -5 -15 -16 -274 -83 -283 -74 -8 7 16 45 35 55
33 18 224 63 243 58 12 -3 19 0 19 10 0 8 5 11 10 8 6 -4 32 1 58 9 71 24 173
44 207 41 21 -1 31 -8 33 -21z m-4418 -9 c98 -22 509 -83 745 -110 116 -14
282 -34 370 -46 218 -30 282 -28 455 9 80 17 161 36 180 42 19 5 36 10 37 10
2 0 3 -116 3 -258 0 -243 -1 -260 -19 -276 -12 -11 -27 -15 -40 -11 -19 6
-107 -12 -99 -20 2 -3 21 0 42 6 20 6 43 8 49 6 7 -3 -1 -8 -18 -11 -16 -4
-57 -16 -90 -26 -78 -24 -244 -54 -253 -45 -4 3 -9 92 -12 197 -5 189 -5 191
-30 209 -28 21 -86 31 -475 84 -143 20 -305 42 -360 50 -201 28 -381 47 -410
43 -40 -4 -43 -20 -44 -220 -1 -131 -4 -168 -14 -168 -7 0 -34 13 -60 30 l-47
30 0 245 c0 189 3 245 13 245 6 -1 41 -7 77 -15z m4920 -44 c6 -11 10 -87 10
-175 0 -130 -2 -156 -15 -156 -12 0 -15 30 -17 175 -2 96 0 175 4 175 4 0 12
-9 18 -19z m-1616 -216 l1 -210 -125 -46 c-69 -25 -137 -51 -152 -57 -26 -11
-29 -9 -44 21 -38 75 -82 103 -175 113 -73 7 -174 -15 -207 -47 -11 -10 -23
-15 -26 -12 -3 4 -6 47 -6 97 l0 91 108 52 c104 50 253 103 492 176 63 19 119
34 124 33 5 -1 9 -96 10 -211z m1364 128 c55 -34 106 -105 127 -177 20 -67 33
-203 25 -263 -5 -41 -7 -32 -13 56 -15 220 -57 313 -162 362 -47 22 -129 25
-173 6 -63 -26 -202 -186 -202 -232 0 -7 -4 -17 -10 -20 -6 -4 -10 7 -10 25 0
38 94 188 138 219 98 69 193 78 280 24z m382 -138 c0 -158 -7 -204 -24 -160
-8 23 6 335 16 335 4 0 8 -79 8 -175z m-1250 142 c0 -26 -16 -33 -150 -67 -47
-11 -102 -25 -123 -31 -20 -5 -42 -7 -47 -4 -14 9 -12 41 3 52 22 18 281 67
285 54 5 -16 22 -13 22 4 0 8 2 15 5 15 3 0 5 -10 5 -23z m3510 -4 c-1 -5 -15
-17 -33 -28 -33 -21 -248 -283 -434 -529 -58 -77 -114 -149 -125 -160 -11 -12
-65 -79 -119 -151 -54 -71 -124 -161 -154 -200 -31 -38 -75 -97 -97 -130 -23
-33 -45 -62 -49 -65 -3 -3 -36 -50 -72 -106 -65 -100 -65 -100 -141 -134 -42
-18 -79 -30 -82 -27 -5 5 22 43 143 197 6 8 40 53 75 100 35 47 102 135 148
195 155 201 169 219 237 311 38 49 142 189 232 310 90 120 175 235 189 254 14
19 32 39 39 43 17 10 17 27 0 27 -42 0 -140 -107 -362 -395 -38 -49 -88 -113
-110 -141 -123 -155 -179 -229 -240 -314 -67 -94 -158 -211 -202 -260 -13 -14
-23 -28 -23 -31 0 -3 -8 -15 -17 -26 -28 -32 -88 -119 -156 -223 -58 -88 -67
-97 -127 -127 -36 -18 -78 -36 -95 -39 l-30 -7 27 34 c15 19 56 74 90 122 35
49 119 159 187 245 125 159 284 369 374 497 28 39 53 72 57 75 3 3 33 41 66
85 33 44 103 136 154 205 52 69 105 145 117 168 19 37 33 49 94 78 40 19 103
43 140 54 38 10 103 34 146 53 43 19 85 37 93 40 23 8 60 8 60 0z m-22 -227
c-61 -79 -183 -240 -312 -411 -140 -185 -154 -202 -229 -287 -28 -31 -78 -97
-111 -146 -102 -152 -205 -279 -244 -302 -20 -12 -59 -31 -85 -41 l-48 -19 63
82 c34 46 67 88 73 94 5 6 48 62 95 124 47 62 148 192 226 290 77 97 180 232
230 300 49 67 145 197 213 289 68 91 131 181 140 200 l16 34 3 -82 c3 -80 2
-84 -30 -125z m-2980 144 c-12 -16 -29 -32 -37 -34 -27 -7 -65 0 -69 14 -3 9
2 11 19 7 16 -4 38 2 64 19 22 13 41 24 43 24 1 0 -7 -13 -20 -30z m-4218 0
c0 -5 -2 -10 -4 -10 -3 0 -8 5 -11 10 -3 6 -1 10 4 10 6 0 11 -4 11 -10z
m4523 -4 c18 -7 43 -25 56 -40 31 -33 25 -33 -19 -1 -83 61 -218 12 -302 -111
-56 -82 -68 -129 -68 -267 0 -91 11 -159 35 -222 5 -15 3 -13 -11 5 -10 14
-24 30 -31 35 -19 14 -24 328 -5 346 6 7 12 21 12 31 0 58 126 208 191 226 50
15 105 14 142 -2z m-372 -119 c-13 -13 -26 -3 -16 12 3 6 11 8 17 5 6 -4 6
-10 -1 -17z m-3585 -32 c115 -19 221 -39 235 -45 23 -10 23 -10 -6 -5 -268 44
-511 88 -515 92 -6 6 7 4 286 -42z m1874 -53 l0 -98 -32 -19 c-66 -38 -158
-141 -193 -217 -39 -85 -73 -211 -81 -300 -8 -101 -14 -128 -27 -128 -20 0
-140 -61 -164 -82 -12 -11 -48 -33 -80 -48 l-58 -28 -9 22 c-6 11 -12 141 -15
288 -6 258 -7 267 -29 297 -24 33 -22 51 6 51 21 1 194 91 382 201 80 46 172
97 205 112 33 15 67 32 75 37 8 5 16 9 18 9 1 1 2 -43 2 -97z m4198 56 c-77
-75 -223 -257 -607 -763 -298 -392 -301 -395 -404 -553 -91 -140 -101 -151
-156 -181 -55 -29 -102 -40 -100 -23 1 19 178 278 264 387 39 50 88 114 109
144 32 45 226 299 269 351 7 9 28 38 47 65 18 28 65 91 104 141 39 49 80 103
91 118 11 15 53 71 93 124 39 53 72 103 72 111 0 40 -242 -239 -480 -554 -196
-258 -292 -387 -324 -435 -20 -30 -79 -116 -131 -190 -52 -74 -111 -157 -130
-185 -19 -27 -35 -62 -35 -76 0 -23 -10 -32 -70 -63 -67 -35 -160 -70 -160
-59 0 3 13 22 28 42 16 20 52 78 81 129 57 103 104 171 166 247 23 28 68 91
101 140 32 50 92 128 132 175 41 47 95 114 120 150 47 65 178 236 212 277 55
65 232 304 228 308 -7 7 -139 -126 -221 -223 -68 -80 -184 -232 -378 -494 -42
-57 -94 -133 -117 -170 -22 -37 -76 -113 -119 -170 -44 -57 -99 -142 -123
-188 -24 -47 -47 -87 -50 -90 -12 -11 -49 -68 -68 -105 -17 -34 -34 -47 -114
-87 -51 -26 -105 -50 -120 -54 l-28 -6 45 88 c41 81 42 86 15 54 -17 -19 -42
-60 -57 -90 -15 -30 -34 -60 -43 -67 -28 -21 -154 -81 -200 -94 -25 -7 -49
-16 -55 -19 -5 -4 -77 -38 -160 -74 -82 -37 -163 -74 -180 -82 -46 -22 -351
-153 -430 -184 -38 -16 -115 -49 -170 -75 -55 -26 -169 -76 -254 -111 -84 -36
-183 -80 -220 -99 -69 -35 -138 -65 -151 -65 -11 0 -23 863 -14 1063 l7 175
116 45 c64 24 215 83 336 130 349 135 626 240 820 312 297 108 397 146 460
171 33 13 134 50 225 83 91 32 246 89 345 126 99 37 254 94 345 126 268 94
320 113 425 156 55 23 116 44 135 48 19 4 53 17 75 28 54 27 167 65 181 60 7
-2 29 8 50 22 20 14 49 28 63 32 14 3 44 14 66 24 22 10 51 19 64 19 22 0 20
-4 -21 -42z m-2610 16 c34 -10 26 -21 -28 -39 -57 -19 -69 -39 -15 -24 20 6
54 9 77 7 37 -3 43 -7 50 -33 8 -29 3 -242 -8 -351 -4 -45 -9 -52 -37 -66 -18
-8 -47 -19 -64 -22 -18 -4 -35 -12 -38 -17 -18 -28 -23 14 -27 226 l-3 234
-30 31 c-33 34 -27 47 25 53 60 7 74 7 98 1z m-243 -35 c25 -10 -149 -12 -185
-2 l-25 7 25 7 c28 9 155 1 185 -12z m73 -49 l32 -29 -2 -223 -3 -222 -89 -33
c-49 -18 -94 -37 -100 -42 -6 -5 -49 -21 -96 -35 -47 -14 -130 -41 -185 -60
-55 -19 -122 -37 -149 -41 -26 -4 -50 -14 -53 -21 -3 -8 -9 -14 -14 -14 -5 0
-6 51 -3 118 8 141 -8 272 -42 358 -13 33 -24 65 -24 70 0 12 346 108 505 139
80 16 140 33 155 45 32 25 30 25 68 -10z m616 9 c31 -14 66 -86 66 -134 0 -46
-38 -159 -62 -184 -22 -25 -39 -26 -81 -6 -55 26 -78 73 -78 155 0 87 22 137
72 162 40 21 50 22 83 7z m2719 -206 c-34 -40 -99 -121 -171 -213 -15 -18 -51
-61 -80 -95 -29 -33 -70 -86 -90 -118 -20 -32 -62 -88 -93 -125 -30 -37 -69
-86 -86 -110 -39 -53 -61 -71 -140 -111 -79 -40 -91 -39 -56 2 125 148 200
241 289 357 56 74 127 165 156 201 113 139 264 334 283 363 l20 31 3 -68 c3
-67 2 -70 -35 -114z m-4436 132 c40 -12 56 -23 73 -51 12 -19 20 -37 17 -40
-2 -3 -26 9 -53 25 -74 47 -161 39 -303 -27 -78 -36 -177 -138 -220 -226 -38
-78 -71 -222 -71 -312 0 -48 -4 -63 -16 -68 -9 -4 -18 -5 -19 -4 -5 6 24 225
35 273 20 78 75 192 121 246 73 87 204 169 302 188 63 13 79 12 134 -4z m1860
-95 c-9 -125 -79 -247 -151 -266 -27 -6 -100 18 -113 39 -3 5 4 4 15 -2 27
-15 93 -13 112 2 50 39 120 206 121 289 0 46 2 50 11 28 5 -14 8 -54 5 -90z
m-4722 21 l50 -19 7 -118 c5 -66 14 -155 23 -199 8 -44 19 -120 25 -170 6 -49
20 -128 31 -174 11 -46 21 -104 23 -129 3 -55 -4 -51 201 -98 83 -19 186 -43
230 -54 111 -28 382 -85 490 -105 50 -8 102 -18 116 -21 24 -5 26 -2 37 48 6
29 16 82 22 118 5 36 23 130 39 210 16 80 39 222 52 315 12 94 25 173 29 178
3 4 47 14 96 23 49 8 131 26 183 41 98 27 110 25 111 -18 0 -19 -77 -58 -184
-95 -38 -13 -79 -30 -90 -38 -43 -27 -81 -136 -141 -400 -28 -123 -31 -160
-12 -153 25 9 84 27 172 52 50 14 110 34 135 43 l45 18 17 152 c24 206 26 215
69 225 19 4 40 9 47 10 10 2 13 -43 12 -222 0 -123 -3 -227 -5 -231 -8 -14
-158 -49 -250 -59 -212 -24 -270 -33 -277 -44 -8 -11 -19 -48 -33 -109 -6 -25
-4 -27 32 -35 41 -9 446 -11 503 -3 l34 5 -3 -95 c-1 -52 -5 -97 -7 -99 -9 -9
-134 -32 -209 -37 -100 -8 -220 7 -400 51 -77 19 -255 59 -395 90 -243 54
-434 99 -710 167 -124 30 -173 48 -185 68 -7 11 -23 149 -18 154 6 5 197 -54
207 -64 21 -21 22 -7 4 63 -17 69 -31 137 -63 325 -25 143 -75 332 -101 383
-38 76 -36 79 41 50z m-58 -88 c18 -44 26 -73 52 -203 11 -52 29 -134 39 -182
11 -49 16 -88 12 -88 -5 0 -18 16 -31 36 -17 29 -25 65 -35 173 -17 173 -20
186 -50 213 -38 35 -48 57 -33 74 18 22 29 17 46 -23z m3253 -4 c12 -22 28
-75 36 -116 15 -80 19 -233 4 -198 -7 19 -8 19 -15 2 -5 -12 -10 -15 -15 -8
-4 8 -12 6 -23 -6 -12 -14 -19 -55 -27 -153 -8 -97 -16 -139 -27 -150 -14 -14
-15 -5 -9 83 10 179 -18 377 -70 485 -14 29 -24 55 -21 58 2 3 18 -7 35 -21
40 -33 45 -32 38 10 -9 46 -2 55 39 55 30 0 37 -5 55 -41z m-364 -43 c62 -29
117 -83 148 -150 39 -83 40 -107 1 -32 -41 77 -68 105 -139 141 -38 19 -65 25
-113 25 -104 0 -177 -42 -242 -139 -38 -57 -53 -90 -91 -216 -30 -97 -38 -270
-16 -344 9 -30 14 -56 12 -58 -2 -3 -12 22 -21 54 -23 75 -23 226 -1 353 35
205 153 361 293 389 60 12 104 6 169 -23z m4500 -68 c-7 -69 -5 -66 -144 -240
-145 -180 -169 -204 -234 -240 -63 -34 -98 -50 -98 -44 0 1 12 16 26 32 14 16
71 85 127 154 55 69 130 161 167 205 36 44 84 106 106 137 21 32 43 58 48 58
5 0 6 -28 2 -62z m-7069 -33 c156 -29 480 -87 563 -101 47 -7 162 -26 255 -42
168 -28 170 -29 166 -53 -9 -64 -59 -123 -138 -163 -43 -21 -72 -20 -210 8
-65 14 -138 27 -163 31 -67 10 -285 53 -365 72 -60 14 -78 24 -126 70 -54 51
-91 109 -104 166 -6 24 -4 27 19 27 14 0 61 -7 103 -15z m1557 -7 c10 -41 7
-47 -36 -59 -119 -32 -232 -73 -254 -93 -29 -24 -83 -195 -105 -331 -12 -76
-23 -100 -41 -89 -15 9 -8 59 22 180 48 188 88 292 119 308 34 18 149 46 186
46 15 0 26 3 22 6 -7 7 51 52 69 53 7 1 14 -9 18 -21z m-1865 -250 c1 -47 2
-48 57 -79 33 -19 59 -42 65 -57 5 -14 8 -26 6 -29 -7 -6 -139 72 -147 88 -7
13 -15 288 -9 324 3 18 28 -199 28 -247z m4131 132 c-20 -13 -33 -13 -25 0 3
6 14 10 23 10 15 0 15 -2 2 -10z m3260 -77 c0 -50 -32 -94 -92 -124 -57 -29
-88 -40 -88 -30 0 5 31 46 68 92 38 46 75 95 82 108 16 31 30 11 30 -46z
m-4586 33 c34 -22 69 -102 74 -168 5 -71 -26 -143 -90 -206 -68 -68 -131 -57
-184 34 -24 41 -26 52 -22 132 3 65 10 98 28 132 24 47 55 83 80 93 23 10 88
0 114 -17z m263 -8 c-3 -8 -6 -5 -6 6 -1 11 2 17 5 13 3 -3 4 -12 1 -19z
m-1414 -37 c-20 -18 -37 -48 -47 -82 -21 -70 -21 -90 1 -59 18 27 43 49 56 50
4 0 7 -13 7 -30 0 -19 -5 -30 -14 -30 -7 0 -19 -7 -26 -15 -7 -8 -19 -14 -28
-13 -21 4 -27 -21 -8 -28 9 -3 27 1 41 10 34 22 35 21 35 -23 0 -29 -5 -42
-22 -53 -22 -14 -121 -48 -139 -48 -16 0 -10 58 16 163 27 108 51 147 110 173
47 21 52 16 18 -15z m1310 -114 c0 -52 -4 -72 -18 -85 -17 -16 -17 -15 -11 17
3 18 6 66 6 105 1 59 3 68 12 51 7 -11 12 -51 11 -88z m717 29 c0 -6 -103 -36
-121 -36 -23 0 -1 12 48 25 52 14 73 17 73 11z m-3253 -67 c87 -17 178 -35
203 -40 52 -11 245 -46 438 -80 161 -27 169 -32 149 -81 -28 -66 -122 -118
-215 -118 -57 0 -312 53 -462 97 -160 46 -247 114 -290 228 -12 32 -18 32 177
-6z m3013 -14 c-46 -18 -74 -18 -35 0 17 7 39 13 50 13 13 0 7 -5 -15 -13z
m-70 -16 c0 -5 -7 -9 -15 -9 -15 0 -20 12 -9 23 8 8 24 -1 24 -14z m-3308 -48
c32 -14 52 -30 63 -51 l17 -32 -34 7 c-72 16 -128 56 -128 92 0 19 3 21 18 13
9 -5 38 -19 64 -29z m2248 -212 c0 -88 -4 -169 -10 -179 -5 -10 -27 -24 -47
-31 -21 -6 -59 -22 -84 -35 -25 -12 -77 -34 -115 -47 -38 -14 -77 -28 -87 -32
-16 -7 -18 -1 -15 71 l3 79 50 7 c78 12 260 75 260 90 0 17 -36 14 -158 -12
-94 -21 -129 -20 -97 1 27 17 114 40 178 46 l62 6 -2 51 c-1 50 -2 50 -5 9 -6
-67 -18 -50 -14 19 2 45 6 57 12 43 6 -15 8 -10 8 21 1 47 6 54 38 54 l23 0 0
-161z m659 -1599 c5 -52 13 -157 17 -234 l7 -139 -34 5 c-19 3 -86 20 -149 37
-63 18 -144 41 -180 51 -36 10 -123 37 -195 60 -71 23 -175 54 -230 70 -55 15
-179 51 -275 80 -96 29 -215 63 -265 76 -49 14 -124 35 -165 49 -41 13 -102
29 -135 36 -61 12 -90 28 -68 36 28 10 395 297 508 397 45 39 109 96 145 126
35 30 68 60 74 65 6 6 54 48 106 95 91 82 136 123 300 275 347 324 407 389
478 513 l37 67 7 -785 c3 -432 11 -828 17 -880z m-335 1591 c-6 -6 -34 21 -46
43 -8 15 -2 12 19 -9 16 -16 28 -32 27 -34z m-758 -98 c-15 -28 -15 -27 -16
34 0 40 4 63 13 66 18 6 21 -67 3 -100z m-90 42 c10 -38 0 -51 -50 -64 -47
-11 -314 -15 -353 -5 -28 8 -29 24 -4 55 18 22 29 24 138 30 258 12 262 12
269 -16z"/>
<path d="M5288 8353 c7 -3 16 -2 19 1 4 3 -2 6 -13 5 -11 0 -14 -3 -6 -6z"/>
<path d="M5308 8303 c12 -2 30 -2 40 0 9 3 -1 5 -23 4 -22 0 -30 -2 -17 -4z"/>
<path d="M5408 8303 c7 -3 16 -2 19 1 4 3 -2 6 -13 5 -11 0 -14 -3 -6 -6z"/>
<path d="M6858 8293 c7 -3 16 -2 19 1 4 3 -2 6 -13 5 -11 0 -14 -3 -6 -6z"/>
<path d="M7254 8292 c-7 -4 42 -8 109 -9 66 -2 117 0 114 3 -9 10 -210 15
-223 6z"/>
<path d="M7138 8283 c12 -2 32 -2 45 0 12 2 2 4 -23 4 -25 0 -35 -2 -22 -4z"/>
<path d="M8000 7660 c0 -19 -7 -72 -15 -117 -8 -45 -17 -111 -21 -148 l-7 -66
39 6 c82 13 84 14 84 41 0 35 -61 297 -71 309 -5 5 -9 -6 -9 -25z"/>
<path d="M6688 7564 c-8 -14 -45 -171 -57 -244 -18 -116 -19 -131 -4 -126 7 3
42 8 78 12 62 6 65 8 65 33 0 15 -6 51 -14 81 -8 30 -22 93 -31 140 -19 90
-29 118 -37 104z"/>
<path d="M1697 7573 c-4 -3 -7 -15 -7 -25 0 -17 5 -19 33 -13 30 7 46 20 47
38 0 9 -64 10 -73 0z"/>
<path d="M3156 7561 c-25 -28 -14 -53 21 -49 24 3 28 8 28 33 0 36 -24 44 -49
16z"/>
<path d="M4809 5987 c-9 -8 -22 -17 -30 -20 -8 -2 -1 -3 15 -1 34 5 40 8 34
25 -3 8 -8 7 -19 -4z"/>
<path d="M3950 5914 c-52 -25 -102 -48 -110 -53 -11 -6 -16 -30 -18 -95 -3
-95 1 -100 55 -71 15 8 58 28 96 44 49 22 70 37 77 56 12 30 14 165 3 164 -5
0 -51 -21 -103 -45z m61 -62 c-10 -23 -96 -92 -115 -92 -3 0 -6 13 -6 28 0 24
9 33 63 64 34 19 64 33 66 32 2 -2 -2 -16 -8 -32z"/>
<path d="M4046 5724 c-8 -21 -8 -24 3 -24 5 0 11 9 14 20 6 24 -8 27 -17 4z"/>
<path d="M2154 6114 c-5 -18 -1 -34 13 -52 42 -57 78 -24 46 42 -20 43 -50 48
-59 10z"/>
<path d="M6717 5730 c-4 -14 -6 -50 -6 -80 l1 -55 9 60 c11 70 8 116 -4 75z"/>
<path d="M7450 5238 c-24 -24 -72 -81 -109 -128 -36 -47 -85 -109 -108 -138
-24 -29 -43 -56 -43 -60 1 -12 109 109 181 203 38 50 83 107 100 128 41 49 31
47 -21 -5z"/>
<path d="M6210 3780 c-12 -17 -20 -36 -17 -43 2 -6 14 7 26 31 25 49 21 55 -9
12z"/>
<path d="M5400 5484 l-45 -14 40 6 c22 3 44 10 50 15 11 11 12 11 -45 -7z"/>
<path d="M5275 5454 c-127 -37 -185 -56 -185 -60 0 -9 55 6 164 42 101 33 115
45 21 18z"/>
<path d="M4972 5024 c-98 -32 -112 -40 -112 -69 0 -30 22 -32 95 -11 42 13
115 68 115 87 0 17 -31 15 -98 -7z"/>
<path d="M6030 5428 c-24 -39 -26 -95 -4 -126 21 -30 37 -28 68 9 20 23 26 42
26 78 0 52 -12 71 -47 71 -16 0 -30 -11 -43 -32z"/>
<path d="M3331 4624 c0 -11 3 -14 6 -6 3 7 2 16 -1 19 -3 4 -6 -2 -5 -13z"/>
<path d="M3331 4174 c0 -11 3 -14 6 -6 3 7 2 16 -1 19 -3 4 -6 -2 -5 -13z"/>
<path d="M3318 4143 c7 -3 16 -2 19 1 4 3 -2 6 -13 5 -11 0 -14 -3 -6 -6z"/>
<path d="M1720 5116 c0 -16 42 -87 53 -90 7 -2 48 -9 92 -15 44 -7 152 -25
240 -41 88 -16 221 -38 295 -50 74 -12 167 -28 207 -36 40 -7 77 -14 82 -14
13 0 44 58 36 69 -8 13 -126 37 -345 71 -107 16 -276 45 -375 64 -207 39 -285
51 -285 42z"/>
<path d="M1792 4989 c16 -49 160 -85 733 -180 49 -8 66 -7 97 7 21 10 37 22
35 28 -2 6 -55 19 -118 29 -63 9 -244 40 -404 69 -159 28 -303 53 -319 56 -21
3 -27 1 -24 -9z"/>
<path d="M4183 4852 c-31 -37 -32 -113 -2 -143 46 -46 114 4 114 86 0 80 -66
114 -112 57z"/>
<path d="M1780 4768 c0 -7 10 -25 23 -41 24 -30 76 -43 422 -108 88 -17 204
-41 257 -55 130 -32 152 -32 168 5 14 34 7 51 -20 51 -10 0 -62 9 -117 20
-136 28 -718 139 -730 140 -2 0 -3 -6 -3 -12z"/>
<path d="M1833 4673 c26 -41 197 -102 372 -133 64 -11 141 -27 172 -35 89 -23
148 -29 172 -15 12 6 21 16 19 22 -5 15 -115 43 -284 73 -78 14 -165 32 -195
39 -30 8 -93 21 -142 30 -48 9 -95 20 -104 23 -10 4 -14 2 -10 -4z"/>
<path d="M9435 8119 c-3 -8 -7 -354 -9 -769 -2 -415 -8 -854 -13 -975 -8 -199
-11 -225 -32 -267 -27 -56 -81 -106 -157 -144 -30 -15 -58 -32 -63 -38 -5 -6
-11 -247 -13 -536 -5 -569 -7 -587 -61 -669 -44 -66 -141 -135 -262 -187 -60
-25 -148 -64 -195 -85 -47 -21 -119 -51 -160 -67 -41 -17 -127 -55 -190 -85
-63 -30 -155 -72 -205 -92 -100 -42 -487 -212 -580 -255 -33 -15 -100 -44
-150 -65 -49 -20 -132 -56 -183 -81 -52 -24 -98 -44 -103 -44 -5 0 -79 -31
-164 -70 -85 -38 -157 -70 -159 -70 -5 0 -251 -108 -343 -151 -34 -16 -65 -29
-68 -29 -6 0 -153 -65 -295 -131 -47 -21 -88 -39 -91 -39 -4 0 -77 -34 -162
-75 -86 -41 -161 -75 -166 -75 -6 0 -79 -30 -163 -66 -222 -97 -380 -161 -425
-173 -72 -20 -77 -28 -84 -138 -12 -168 -9 -353 6 -463 20 -149 20 -163 -12
-195 -26 -25 -32 -27 -88 -21 -93 10 -220 44 -324 88 -53 22 -193 71 -311 110
-118 38 -280 91 -360 118 -231 78 -555 177 -750 230 -58 16 -177 52 -265 80
-88 29 -219 69 -290 89 -72 21 -152 47 -178 59 -55 24 -54 11 1 -17 48 -25 68
-48 77 -91 4 -20 21 -48 41 -66 32 -30 41 -52 65 -162 5 -24 22 -60 38 -80 15
-21 32 -52 36 -70 5 -23 12 -32 26 -32 11 0 17 -5 14 -10 -3 -6 1 -13 11 -17
16 -6 16 -7 0 -19 -22 -15 -10 -22 51 -31 45 -6 93 -40 93 -67 0 -5 7 -14 15
-20 8 -6 21 -38 28 -72 8 -42 16 -59 25 -56 19 6 72 -18 72 -34 0 -13 130 -61
158 -58 6 1 12 -2 12 -6 0 -5 12 -10 28 -12 25 -3 27 -7 33 -58 3 -30 6 -47 7
-37 3 25 15 21 41 -13 16 -22 28 -29 41 -25 10 3 25 -1 33 -10 10 -10 35 -15
71 -15 33 0 56 -4 56 -11 0 -5 5 -7 10 -4 6 3 10 -3 10 -14 0 -22 19 -30 21
-8 1 6 4 -1 8 -18 5 -21 9 1 14 74 4 57 10 107 13 112 8 14 152 11 156 -3 3
-7 24 -18 49 -24 34 -9 39 -13 19 -15 -15 -1 -8 -4 20 -8 41 -6 45 -9 51 -41
4 -19 9 -70 12 -112 l5 -78 -49 0 c-27 0 -49 -3 -49 -8 0 -11 37 -41 44 -35 3
3 12 0 21 -7 13 -11 15 -9 15 13 0 33 11 35 171 31 74 -2 139 -4 145 -4 7 0
15 -39 20 -107 6 -75 10 -93 12 -60 2 26 7 47 11 47 5 0 20 -9 34 -20 14 -11
31 -20 39 -20 8 0 24 -13 35 -29 20 -26 25 -28 72 -23 38 3 51 1 51 -9 0 -8 6
-5 14 6 13 19 15 17 21 -18 8 -39 28 -52 23 -15 -4 33 14 216 19 201 3 -7 23
-14 46 -15 l42 -1 -45 -7 c-39 -6 -40 -7 -13 -8 21 -1 37 -9 45 -22 24 -38
140 -19 167 27 10 17 10 16 11 -2 1 -17 3 -17 12 5 11 24 11 24 19 -15 4 -22
8 -58 9 -80 0 -47 9 -85 20 -85 4 0 5 12 2 26 -3 18 -1 25 6 20 6 -4 25 0 41
9 16 8 37 12 46 9 20 -8 75 15 75 31 0 21 82 95 105 95 3 0 5 -12 5 -27 0 -54
13 -2 19 80 1 4 34 7 74 7 81 0 72 -7 140 120 16 30 35 60 42 65 6 6 16 21 20
35 l8 25 10 -25 c9 -23 11 -20 18 28 4 29 9 56 12 59 3 3 30 8 59 12 51 6 54
8 79 55 15 27 35 53 45 59 21 10 84 78 84 89 0 4 6 5 14 2 11 -4 16 6 21 40 6
38 13 48 38 61 16 8 51 15 78 15 l47 0 7 40 c4 25 12 40 21 40 8 0 14 10 14
23 0 28 63 103 79 93 6 -4 11 -1 11 8 0 9 5 16 10 16 6 0 10 -5 10 -11 0 -5 5
-7 10 -4 6 3 10 19 10 34 0 22 7 29 33 39 18 7 42 12 53 12 11 0 29 7 40 15
10 8 29 15 42 15 12 0 22 5 22 10 0 6 12 10 26 10 22 0 24 2 14 14 -6 8 -18
12 -26 9 -8 -3 -14 0 -14 6 0 6 11 11 24 11 14 0 28 4 31 10 3 5 17 10 30 10
21 0 26 6 31 40 4 22 10 40 15 40 5 0 9 6 9 14 0 9 20 19 50 26 28 7 50 16 50
20 0 5 10 12 22 15 11 4 31 18 43 31 12 13 27 24 33 24 6 0 23 5 37 12 21 9
25 18 26 57 l1 46 10 -42 c7 -32 14 -43 28 -43 10 0 20 5 22 12 2 6 15 12 29
14 31 3 158 42 140 43 -17 1 29 45 69 66 22 11 29 12 33 2 7 -21 16 -3 27 53
12 64 17 71 35 46 13 -17 41 -14 30 4 -3 5 7 17 22 27 15 10 36 25 46 34 10 9
46 20 80 24 34 3 67 11 74 17 14 12 17 6 29 -57 l7 -40 10 38 c7 29 14 37 31
37 12 0 27 5 34 12 7 7 24 12 40 13 37 0 37 30 0 30 -16 1 -33 6 -40 13 -9 9
-8 12 4 12 9 0 23 8 30 18 7 11 30 24 51 31 20 7 37 17 37 22 0 5 9 9 20 9 12
0 32 7 45 16 30 20 45 11 45 -27 0 -39 16 -37 24 4 5 25 9 29 16 17 8 -13 10
-13 10 2 0 11 12 18 43 23 23 4 53 14 67 23 44 29 101 52 131 52 17 0 34 8 43
21 8 12 19 18 25 14 6 -3 11 -1 11 4 0 6 9 11 19 11 10 0 21 6 24 14 3 7 18
17 34 20 26 7 97 36 135 57 26 13 41 11 34 -6 -4 -11 1 -15 19 -15 14 0 24 3
24 8 -4 23 6 30 56 41 35 8 55 18 55 27 0 8 9 14 19 14 10 0 21 7 25 15 3 8
12 15 21 15 8 0 15 5 15 11 0 29 74 53 82 27 2 -6 12 16 22 50 13 49 21 62 37
62 10 0 19 -4 19 -10 0 -5 27 9 60 30 55 37 64 40 130 40 59 0 70 -3 70 -17 0
-9 3 -13 7 -10 3 4 7 37 7 75 1 61 3 67 22 67 24 0 104 53 104 69 0 6 14 19
31 29 20 11 29 22 25 32 -4 11 2 15 19 15 14 0 34 9 45 20 29 29 36 25 51 -27
l13 -47 8 32 c5 17 15 32 23 32 7 0 17 10 21 23 4 12 11 25 16 28 6 4 -4 13
-21 20 -28 12 -31 18 -27 44 6 43 27 96 35 91 11 -7 25 7 46 47 11 20 23 37
27 37 5 0 8 10 8 23 0 14 11 28 30 39 26 15 30 23 30 58 0 22 5 40 10 40 6 0
10 22 10 50 0 43 4 53 36 84 34 33 36 39 32 80 -5 39 -3 45 18 55 26 11 26 14
24 108 -2 77 10 159 20 143 9 -14 15 -6 24 35 5 21 4 26 -3 15 -6 -8 -12 -12
-13 -10 -37 49 -40 63 -33 162 5 70 11 101 21 105 8 3 14 16 14 28 0 14 7 26
18 28 9 3 40 11 67 17 l50 13 3 61 c1 33 7 63 12 64 6 2 10 21 10 43 0 21 5
39 10 39 15 0 12 77 -2 83 -7 3 -3 6 9 6 20 1 44 20 26 22 -32 3 -60 11 -69
22 -7 7 -14 67 -18 139 -5 119 -4 128 14 138 12 7 19 20 18 38 0 15 3 82 7
150 8 121 8 122 33 122 l24 0 -7 78 c-4 42 -11 79 -16 80 -5 2 -9 39 -9 81 0
73 -1 78 -25 89 -21 10 -24 17 -21 44 3 18 5 86 5 151 1 110 2 117 21 117 11
0 20 6 20 13 1 6 1 78 0 160 -1 144 -1 147 21 147 21 0 21 3 14 76 -5 55 -4
79 5 84 9 5 8 16 -5 41 -10 19 -21 36 -24 39 -15 12 -29 95 -19 108 8 10 1 16
-30 28 -35 14 -42 22 -56 69 -17 52 -72 115 -102 115 -13 0 -16 13 -19 85 -1
22 -6 30 -21 32 -10 1 -34 4 -51 8 -24 5 -34 4 -38 -6z m89 -2911 c3 -13 7
-81 8 -153 l3 -130 -40 2 c-65 4 -106 13 -100 24 4 5 15 9 26 9 16 0 19 7 19
53 1 30 7 60 15 71 19 25 19 36 -1 36 -11 0 -8 6 10 23 14 12 27 36 30 52 6
38 4 35 16 35 5 0 12 -10 14 -22z m-6321 -3228 c3 -11 1 -18 -4 -14 -5 3 -9
12 -9 20 0 20 7 17 13 -6z m997 -265 c19 -10 37 -22 41 -26 3 -5 27 -13 54
-18 27 -5 51 -14 53 -20 2 -6 11 -11 20 -11 10 0 12 -3 7 -9 -6 -5 -57 -11
-115 -12 l-105 -3 -3 70 c-1 38 1 64 5 58 5 -6 24 -19 43 -29z m207 -87 c-3
-7 -5 -2 -5 12 0 14 2 19 5 13 2 -7 2 -19 0 -25z m673 11 c0 -15 -4 -19 -16
-15 -9 3 -20 6 -25 6 -4 0 -6 7 -3 15 9 24 44 19 44 -6z"/>
<path d="M9568 8103 c7 -3 16 -2 19 1 4 3 -2 6 -13 5 -11 0 -14 -3 -6 -6z"/>
<path d="M1360 4222 c0 -5 6 -12 14 -15 8 -3 12 -17 10 -33 -1 -15 4 -40 12
-55 17 -33 19 -120 3 -136 -7 -7 -8 -16 0 -29 6 -11 20 -41 31 -67 24 -55 122
-155 160 -163 44 -10 50 -13 57 -31 3 -10 13 -25 22 -34 9 -9 32 -36 52 -60
39 -46 107 -77 142 -63 11 4 24 -1 35 -13 9 -11 40 -28 69 -37 28 -9 57 -24
63 -32 8 -9 32 -14 71 -14 33 0 59 -4 59 -10 0 -6 8 -5 20 2 17 11 22 10 36
-10 15 -21 18 -22 39 -8 20 13 26 13 61 -4 43 -22 192 -42 201 -27 6 10 43
-27 43 -44 0 -7 7 -4 15 7 14 18 14 18 15 1 0 -11 5 -17 13 -14 6 2 11 10 10
16 -2 6 2 11 7 11 6 0 10 -5 10 -10 0 -7 6 -7 19 0 11 5 26 8 33 5 7 -3 22 1
33 10 11 8 103 77 205 152 309 228 417 319 334 281 -19 -9 -46 -9 -112 1 -137
19 -430 78 -632 126 -321 77 -473 113 -550 130 -229 50 -556 144 -587 168 -9
6 -13 6 -13 -1z"/>
<path d="M2660 3339 c0 -5 5 -7 10 -4 6 3 10 8 10 11 0 2 -4 4 -10 4 -5 0 -10
-5 -10 -11z"/>
<path d="M6808 2903 c6 -2 18 -2 25 0 6 3 1 5 -13 5 -14 0 -19 -2 -12 -5z"/>
<path d="M3460 1630 c0 -5 5 -10 11 -10 5 0 7 5 4 10 -3 6 -8 10 -11 10 -2 0
-4 -4 -4 -10z"/>
<path d="M4415 1310 c3 -5 8 -10 11 -10 2 0 4 5 4 10 0 6 -5 10 -11 10 -5 0
-7 -4 -4 -10z"/>
<path d="M4446 1305 c4 -8 8 -15 10 -15 2 0 4 7 4 15 0 8 -4 15 -10 15 -5 0
-7 -7 -4 -15z"/>
<path d="M4461 1264 c0 -11 3 -14 6 -6 3 7 2 16 -1 19 -3 4 -6 -2 -5 -13z"/>
</g>
</svg>
