<?xml version="1.0" standalone="no"?>
<!DOCTYPE svg PUBLIC "-//W3C//DTD SVG 20010904//EN"
 "http://www.w3.org/TR/2001/REC-SVG-20010904/DTD/svg10.dtd">
<svg version="1.0" xmlns="http://www.w3.org/2000/svg"
 width="1024.000000pt" height="1024.000000pt" viewBox="0 0 1024.000000 1024.000000"
 preserveAspectRatio="xMidYMid meet">

<g transform="translate(0.000000,1024.000000) scale(0.100000,-0.100000)"
fill="#0070f3" stroke="none">
<path d="M1991 6042 c2 -5 47 -56 100 -113 133 -145 155 -170 336 -384 88
-104 170 -199 182 -209 41 -37 43 -33 -198 -286 -91 -96 -215 -227 -275 -290
-60 -63 -114 -120 -120 -125 -6 -6 -31 -32 -56 -59 l-45 -47 285 7 c331 8 304
-1 425 126 43 46 193 199 332 341 139 142 253 265 253 272 0 14 -62 90 -187
230 -34 39 -112 128 -173 199 -187 217 -253 286 -295 311 -38 22 -52 23 -304
30 -164 4 -262 3 -260 -3z"/>
<path d="M3537 6024 c-4 -4 -7 -340 -7 -746 l0 -738 154 0 c131 0 155 2 160
16 3 9 6 127 6 263 l0 247 26 23 c22 19 28 21 39 9 6 -7 103 -136 215 -287
l204 -273 330 3 c182 1 341 4 352 6 18 4 27 26 60 144 l39 139 249 -2 249 -3
42 -140 41 -140 170 4 c93 2 171 5 173 7 3 2 -16 62 -90 284 -10 30 -64 197
-120 370 -217 676 -260 804 -272 812 -16 11 -377 9 -398 -3 -10 -5 -32 -56
-54 -126 -20 -65 -57 -179 -80 -253 -24 -74 -83 -259 -130 -410 -168 -532
-196 -620 -203 -620 -4 0 -49 56 -99 123 -51 67 -170 223 -264 347 -94 124
-173 230 -176 237 -2 6 60 96 140 200 248 323 377 497 377 505 0 5 -55 6 -122
4 -68 -2 -150 -5 -183 -5 -60 -1 -61 -1 -97 -48 -20 -27 -121 -160 -224 -298
l-189 -250 -5 300 -5 300 -151 3 c-82 1 -153 -1 -157 -4z m1907 -630 c42 -132
76 -246 76 -252 0 -9 -45 -12 -160 -12 -88 0 -160 2 -160 4 0 3 30 108 66 233
36 125 71 244 76 262 7 25 12 31 18 20 4 -7 42 -122 84 -255z"/>
<path d="M5870 5890 l0 -140 68 0 c38 0 130 -3 205 -7 l137 -6 0 -594 0 -593
162 0 161 0 -7 595 -7 595 38 1 c21 1 110 4 198 8 l159 6 -3 130 c-1 71 -5
133 -8 137 -2 5 -251 8 -554 8 l-549 0 0 -140z"/>
<path d="M7272 6013 c-10 -19 -84 -249 -252 -778 -56 -176 -125 -394 -155
-485 -29 -91 -56 -175 -59 -188 l-7 -22 172 2 c141 3 173 6 180 18 4 8 25 72
45 143 l37 127 207 0 c114 0 228 3 254 6 41 6 46 5 46 -12 0 -11 17 -78 38
-149 l38 -130 175 4 c96 2 175 4 176 5 1 1 -29 96 -66 212 -38 115 -133 405
-211 644 -78 239 -155 477 -171 528 l-31 92 -203 0 c-184 0 -205 -2 -213 -17z
m283 -583 c37 -118 73 -233 80 -255 7 -22 12 -42 10 -45 -2 -3 -75 -4 -163 -2
l-160 3 28 102 c62 228 124 427 130 420 4 -4 38 -105 75 -223z"/>
<path d="M8290 5290 l0 -740 160 0 160 0 0 250 0 250 33 37 33 36 115 -154
c63 -85 159 -214 213 -286 l99 -133 198 0 c110 0 199 4 199 8 0 4 -31 48 -70
98 -79 101 -266 346 -413 538 -54 71 -95 136 -93 143 6 13 369 497 463 615 29
37 53 69 53 72 0 4 -81 6 -180 6 -159 0 -182 -2 -195 -17 -26 -31 -328 -428
-385 -506 -30 -42 -58 -76 -62 -76 -5 -1 -8 134 -8 299 l0 300 -160 0 -160 0
0 -740z"/>
<path d="M1625 5629 c-121 -4 -236 -12 -255 -17 l-35 -10 42 -1 c23 -1 225
-22 448 -47 224 -25 414 -43 423 -39 12 4 3 19 -43 65 l-59 60 -151 -2 c-82
-1 -249 -5 -370 -9z"/>
<path d="M2040 5359 c-80 -4 -235 -12 -345 -18 -566 -32 -670 -40 -662 -47 9
-9 1149 -144 1216 -144 42 0 56 6 98 39 26 21 61 53 77 70 l30 31 -39 40 -39
40 -96 -1 c-52 -1 -160 -5 -240 -10z"/>
<path d="M2030 5013 c-30 -2 -181 -10 -335 -18 -437 -24 -788 -45 -810 -50
-11 -2 -44 -4 -72 -4 -80 -1 -63 -17 25 -24 135 -11 410 -37 622 -57 113 -11
252 -25 310 -30 161 -16 206 -15 232 3 58 40 158 145 158 165 0 24 7 23 -130
15z"/>
</g>
</svg>
